<?xml version="1.0" standalone="no"?>
<!DOCTYPE svg PUBLIC "-//W3C//DTD SVG 20010904//EN"
 "http://www.w3.org/TR/2001/REC-SVG-20010904/DTD/svg10.dtd">
<svg version="1.0" xmlns="http://www.w3.org/2000/svg"
 width="200.000000pt" height="200.000000pt" viewBox="0 0 200.000000 200.000000"
 preserveAspectRatio="xMidYMid meet">

<g transform="translate(0.000000,200.000000) scale(0.100000,-0.100000)"
fill="#000000" stroke="none">
<path d="M0 1000 l0 -1000 1000 0 1000 0 0 1000 0 1000 -1000 0 -1000 0 0
-1000z m1119 105 l-1 -165 -228 0 -228 0 -1 165 -2 165 231 0 231 0 -2 -165z"/>
<path d="M747 1203 c-4 -3 -7 -21 -7 -40 0 -29 3 -33 25 -33 22 0 25 4 25 34
0 22 -6 36 -16 40 -19 7 -19 7 -27 -1z"/>
<path d="M833 1203 c-7 -2 -13 -20 -13 -39 0 -30 3 -34 26 -34 23 0 25 3 22
37 -3 36 -12 46 -35 36z"/>
<path d="M917 1203 c-4 -3 -7 -21 -7 -40 0 -29 3 -33 25 -33 22 0 25 4 25 34
0 22 -6 36 -16 40 -19 7 -19 7 -27 -1z"/>
<path d="M997 1204 c-4 -4 -7 -22 -7 -41 0 -29 3 -33 26 -33 23 0 25 3 22 37
-3 36 -23 54 -41 37z"/>
<path d="M740 1051 c0 -37 2 -41 26 -41 23 0 25 3 22 38 -2 30 -7 38 -25 40
-21 3 -23 -1 -23 -37z"/>
<path d="M827 1083 c-4 -3 -7 -21 -7 -40 0 -29 3 -33 25 -33 23 0 25 4 25 40
0 32 -4 40 -18 40 -10 0 -22 -3 -25 -7z"/>
<path d="M910 1051 c0 -37 2 -41 26 -41 23 0 25 3 22 38 -2 30 -7 38 -25 40
-21 3 -23 -1 -23 -37z"/>
<path d="M997 1084 c-4 -4 -7 -22 -7 -41 0 -29 3 -33 26 -33 23 0 25 3 22 37
-3 36 -23 54 -41 37z"/>
</g>
</svg>
